<svg xmlns="http://www.w3.org/2000/svg" viewBox="0 0 512 512">
  <rect width="512" height="512" rx="64" fill="#4f46e5"/>
  <rect x="120" y="140" width="272" height="240" rx="16" fill="white"/>
  <rect x="160" y="180" width="24" height="24" rx="4" fill="#4f46e5"/>
  <rect x="200" y="184" width="140" height="16" rx="4" fill="#e5e5e5"/>
  <rect x="160" y="224" width="24" height="24" rx="4" fill="#4f46e5"/>
  <rect x="200" y="228" width="120" height="16" rx="4" fill="#e5e5e5"/>
  <rect x="160" y="268" width="24" height="24" rx="4" fill="#e5e5e5" stroke="#4f46e5" stroke-width="2"/>
  <rect x="200" y="272" width="100" height="16" rx="4" fill="#e5e5e5"/>
  <rect x="160" y="312" width="24" height="24" rx="4" fill="#e5e5e5" stroke="#4f46e5" stroke-width="2"/>
  <rect x="200" y="316" width="160" height="16" rx="4" fill="#e5e5e5"/>
  <path d="M164 190 l6 6 l12 -12" stroke="white" stroke-width="3" fill="none" stroke-linecap="round" stroke-linejoin="round"/>
  <path d="M164 234 l6 6 l12 -12" stroke="white" stroke-width="3" fill="none" stroke-linecap="round" stroke-linejoin="round"/>
</svg>
